<svg width="17" height="16" viewBox="0 0 17 16" fill="none" xmlns="http://www.w3.org/2000/svg">
<path d="M14 3H3.00002C2.7348 3 2.48045 3.10536 2.29291 3.29289C2.10537 3.48043 2.00002 3.73478 2.00002 4V14C1.99886 14.1907 2.05281 14.3777 2.15537 14.5384C2.25793 14.6992 2.40473 14.8269 2.57814 14.9062C2.71029 14.9678 2.85425 14.9998 3.00002 15C3.23477 14.9994 3.46174 14.9157 3.64064 14.7638L3.64627 14.7594L5.68752 13H14C14.2652 13 14.5196 12.8946 14.7071 12.7071C14.8947 12.5196 15 12.2652 15 12V4C15 3.73478 14.8947 3.48043 14.7071 3.29289C14.5196 3.10536 14.2652 3 14 3ZM14 12H5.50002C5.37996 12.0001 5.26394 12.0433 5.17314 12.1219L3.00002 14V4H14V12Z" fill="white"/>
</svg>
