<svg width="16" height="16" viewBox="0 0 16 16" fill="none" xmlns="http://www.w3.org/2000/svg">
<path d="M12.8538 12.146C12.9002 12.1925 12.9371 12.2476 12.9622 12.3083C12.9874 12.369 13.0003 12.4341 13.0003 12.4998C13.0003 12.5655 12.9874 12.6305 12.9622 12.6912C12.9371 12.7519 12.9002 12.8071 12.8538 12.8535C12.8073 12.9 12.7522 12.9368 12.6915 12.962C12.6308 12.9871 12.5657 13.0001 12.5 13.0001C12.4343 13.0001 12.3693 12.9871 12.3086 12.962C12.2479 12.9368 12.1927 12.9 12.1463 12.8535L8.00003 8.70666L3.85378 12.8535C3.75996 12.9474 3.63272 13.0001 3.50003 13.0001C3.36735 13.0001 3.2401 12.9474 3.14628 12.8535C3.05246 12.7597 2.99976 12.6325 2.99976 12.4998C2.99976 12.3671 3.05246 12.2399 3.14628 12.146L7.29316 7.99979L3.14628 3.85354C3.05246 3.75972 2.99976 3.63247 2.99976 3.49979C2.99976 3.36711 3.05246 3.23986 3.14628 3.14604C3.2401 3.05222 3.36735 2.99951 3.50003 2.99951C3.63272 2.99951 3.75996 3.05222 3.85378 3.14604L8.00003 7.29291L12.1463 3.14604C12.2401 3.05222 12.3674 2.99951 12.5 2.99951C12.6327 2.99951 12.76 3.05222 12.8538 3.14604C12.9476 3.23986 13.0003 3.36711 13.0003 3.49979C13.0003 3.63247 12.9476 3.75972 12.8538 3.85354L8.70691 7.99979L12.8538 12.146Z" fill="#C7CCF8"/>
</svg>
