<svg width="16" height="16" viewBox="0 0 16 16" fill="none" xmlns="http://www.w3.org/2000/svg">
<path d="M11.3538 8.35354L6.35378 13.3535C6.30733 13.4 6.25218 13.4368 6.19148 13.462C6.13079 13.4871 6.06573 13.5001 6.00003 13.5001C5.93434 13.5001 5.86928 13.4871 5.80859 13.462C5.74789 13.4368 5.69274 13.4 5.64628 13.3535C5.59983 13.3071 5.56298 13.2519 5.53784 13.1912C5.5127 13.1305 5.49976 13.0655 5.49976 12.9998C5.49976 12.9341 5.5127 12.869 5.53784 12.8083C5.56298 12.7476 5.59983 12.6925 5.64628 12.646L10.2932 7.99979L5.64628 3.35354C5.55246 3.25972 5.49976 3.13247 5.49976 2.99979C5.49976 2.86711 5.55246 2.73986 5.64628 2.64604C5.7401 2.55222 5.86735 2.49951 6.00003 2.49951C6.13272 2.49951 6.25996 2.55222 6.35378 2.64604L11.3538 7.64604C11.4003 7.69248 11.4372 7.74762 11.4623 7.80832C11.4875 7.86902 11.5004 7.93408 11.5004 7.99979C11.5004 8.0655 11.4875 8.13056 11.4623 8.19126C11.4372 8.25196 11.4003 8.3071 11.3538 8.35354Z" fill="#ACACAC"/>
</svg>
