<svg width="32" height="32" viewBox="0 0 32 32" fill="none" xmlns="http://www.w3.org/2000/svg">
<rect width="32" height="32" rx="4" fill="#566FE9"/>
<path d="M22.2075 9.79242C22.0817 9.66675 21.9247 9.57688 21.7527 9.53206C21.5807 9.48724 21.3998 9.48909 21.2287 9.53742H21.2193L9.22307 13.1774C9.02832 13.2335 8.85522 13.3475 8.72671 13.5043C8.5982 13.661 8.52035 13.8531 8.50347 14.055C8.4866 14.257 8.53149 14.4594 8.63221 14.6352C8.73293 14.8111 8.88471 14.9523 9.06745 15.0399L14.3749 17.6249L16.9562 22.9293C17.0365 23.1006 17.1641 23.2454 17.3241 23.3465C17.484 23.4476 17.6695 23.5009 17.8587 23.4999C17.8875 23.4999 17.9162 23.4987 17.9449 23.4962C18.1468 23.4798 18.3388 23.4022 18.4952 23.2736C18.6516 23.145 18.7649 22.9716 18.8199 22.7768L22.4575 10.7805C22.4575 10.7774 22.4575 10.7743 22.4575 10.7712C22.5064 10.6005 22.5091 10.4199 22.4651 10.2479C22.4212 10.0759 22.3323 9.91869 22.2075 9.79242ZM17.8643 22.4905L17.8612 22.4993V22.4949L15.3575 17.3512L18.3574 14.3512C18.4473 14.2566 18.4966 14.1308 18.4949 14.0004C18.4932 13.87 18.4407 13.7454 18.3485 13.6532C18.2563 13.561 18.1317 13.5085 18.0014 13.5068C17.871 13.5052 17.7451 13.5545 17.6506 13.6443L14.6506 16.6443L9.50495 14.1405H9.50057H9.50932L21.5 10.4999L17.8643 22.4905Z" fill="white"/>
</svg>
