<svg width="24" height="24" viewBox="0 0 24 24" fill="none" xmlns="http://www.w3.org/2000/svg">
<path d="M12.0001 7.50001C11.11 7.50001 10.24 7.76393 9.49999 8.2584C8.75997 8.75287 8.18319 9.45567 7.8426 10.2779C7.502 11.1002 7.41289 12.005 7.58652 12.8779C7.76016 13.7508 8.18874 14.5527 8.81808 15.182C9.44741 15.8113 10.2492 16.2399 11.1221 16.4135C11.9951 16.5872 12.8999 16.4981 13.7221 16.1575C14.5444 15.8169 15.2472 15.2401 15.7417 14.5001C16.2361 13.7601 16.5001 12.89 16.5001 12C16.4988 10.8069 16.0243 9.66305 15.1807 8.8194C14.337 7.97576 13.1931 7.50125 12.0001 7.50001ZM12.0001 15C11.4067 15 10.8267 14.8241 10.3333 14.4944C9.84 14.1648 9.45548 13.6962 9.22842 13.1481C9.00135 12.5999 8.94194 11.9967 9.0577 11.4147C9.17346 10.8328 9.45918 10.2983 9.87874 9.87869C10.2983 9.45914 10.8328 9.17341 11.4148 9.05766C11.9967 8.9419 12.5999 9.00131 13.1481 9.22837C13.6963 9.45544 14.1648 9.83995 14.4945 10.3333C14.8241 10.8266 15.0001 11.4067 15.0001 12C15.0001 12.7957 14.684 13.5587 14.1214 14.1213C13.5588 14.6839 12.7957 15 12.0001 15ZM22.3069 10.051C22.286 9.94534 22.2427 9.84546 22.1797 9.7581C22.1168 9.67075 22.0358 9.59796 21.9422 9.5447L19.1457 7.95095L19.1344 4.79907C19.1341 4.69053 19.1102 4.58334 19.0644 4.48493C19.0186 4.38652 18.952 4.29922 18.8691 4.22908C17.8547 3.37098 16.6865 2.71339 15.4266 2.29126C15.3274 2.25768 15.2223 2.24525 15.1179 2.25478C15.0136 2.26431 14.9125 2.29558 14.821 2.34658L12.0001 3.92345L9.17631 2.34376C9.08476 2.29248 8.98348 2.26097 8.87899 2.25128C8.77451 2.24159 8.66916 2.25394 8.56974 2.28751C7.31082 2.71272 6.14395 3.37282 5.13099 4.23283C5.04828 4.30287 4.98172 4.39002 4.93592 4.48826C4.89012 4.5865 4.86616 4.6935 4.86568 4.80189L4.85162 7.95658L2.05506 9.55033C1.9615 9.60359 1.8805 9.67637 1.81757 9.76373C1.75464 9.85108 1.71126 9.95096 1.69037 10.0566C1.43443 11.3427 1.43443 12.6667 1.69037 13.9528C1.71126 14.0584 1.75464 14.1583 1.81757 14.2457C1.8805 14.333 1.9615 14.4058 2.05506 14.4591L4.85162 16.0528L4.86287 19.2047C4.86321 19.3132 4.88711 19.4204 4.93291 19.5188C4.97872 19.6173 5.04534 19.7045 5.12818 19.7747C6.14262 20.6328 7.31083 21.2904 8.57068 21.7125C8.66989 21.7461 8.77504 21.7585 8.87935 21.749C8.98366 21.7395 9.08482 21.7082 9.17631 21.6572L12.0001 20.0766L14.8238 21.6563C14.9356 21.7185 15.0615 21.7508 15.1894 21.75C15.2713 21.75 15.3527 21.7367 15.4304 21.7106C16.6891 21.286 17.856 20.6265 18.8691 19.7672C18.9518 19.6972 19.0184 19.61 19.0642 19.5118C19.11 19.4135 19.134 19.3065 19.1344 19.1981L19.1485 16.0435L21.9451 14.4497C22.0386 14.3964 22.1196 14.3237 22.1825 14.2363C22.2455 14.1489 22.2889 14.0491 22.3097 13.9434C22.5643 12.6583 22.5633 11.3357 22.3069 10.051ZM20.9007 13.3238L18.2222 14.8472C18.1049 14.9139 18.0077 15.0111 17.941 15.1285C17.8866 15.2222 17.8294 15.3216 17.7713 15.4153C17.6969 15.5335 17.6573 15.6703 17.6569 15.81L17.6429 18.8335C16.9229 19.3988 16.1209 19.8509 15.2644 20.1741L12.5626 18.6685C12.4504 18.6064 12.3242 18.5741 12.196 18.5747H12.1782C12.0647 18.5747 11.9504 18.5747 11.8369 18.5747C11.7028 18.5713 11.5701 18.6037 11.4526 18.6685L8.74881 20.1778C7.89053 19.8571 7.08627 19.4073 6.36381 18.8438L6.35349 15.825C6.35303 15.685 6.31341 15.548 6.23912 15.4294C6.18099 15.3356 6.12381 15.2419 6.07037 15.1425C6.00411 15.0233 5.90695 14.9242 5.78912 14.8556L3.10787 13.3285C2.96912 12.4508 2.96912 11.5568 3.10787 10.6791L5.78162 9.15283C5.89897 9.0861 5.99614 8.98893 6.06287 8.87158C6.11724 8.77783 6.17443 8.67845 6.23256 8.5847C6.30696 8.46648 6.34659 8.3297 6.34693 8.19001L6.36099 5.16657C7.08093 4.60121 7.88299 4.14912 8.73943 3.82595L11.4376 5.33157C11.555 5.39667 11.6877 5.42904 11.8219 5.42532C11.9354 5.42532 12.0497 5.42532 12.1632 5.42532C12.2973 5.42868 12.43 5.39632 12.5476 5.33157L15.2513 3.8222C16.1096 4.14289 16.9138 4.59277 17.6363 5.15626L17.6466 8.17501C17.6471 8.31498 17.6867 8.45202 17.761 8.57064C17.8191 8.66439 17.8763 8.75814 17.9297 8.85751C17.996 8.97668 18.0932 9.07578 18.211 9.14439L20.8922 10.6716C21.0328 11.5499 21.0344 12.4449 20.8969 13.3238H20.9007Z" fill="white"/>
</svg>
