<svg width="29" height="28" viewBox="0 0 29 28" fill="none" xmlns="http://www.w3.org/2000/svg">
<path d="M3.2308 16.4154C2.47389 16.0045 2.19345 15.0577 2.60442 14.3008L2.97648 13.6155L9.40446 17.1057C9.53062 17.1742 9.57736 17.3319 9.50886 17.4581L9.01278 18.3718C8.7388 18.8764 8.10764 19.0633 7.60303 18.7893L3.2308 16.4154Z" fill="white"/>
<path d="M24.8617 11.4201C25.615 11.8377 25.8872 12.7868 25.4696 13.5401L25.0916 14.2221L18.3831 10.5035C18.2576 10.4339 18.2122 10.2757 18.2818 10.1502L18.7858 9.24089C19.0642 8.73869 19.697 8.55725 20.1992 8.83562L24.8617 11.4201Z" fill="white"/>
<path d="M10.3437 25.5583C9.58681 25.1473 9.30637 24.2006 9.71734 23.4437L10.0894 22.7584L16.3757 26.1716C16.5019 26.2401 16.5486 26.3979 16.4801 26.5241L15.9841 27.4377C15.7101 27.9423 15.0789 28.1293 14.5743 27.8553L10.3437 25.5583Z" fill="white"/>
<path d="M11.8559 0.18928C12.6128 -0.221686 13.5596 0.0587528 13.9705 0.815659L14.3426 1.50091L3.15219 7.5768L2.53208 6.43472C2.25811 5.93012 2.44507 5.29895 2.94967 5.02498L11.8559 0.18928Z" fill="white"/>
<path d="M24.8367 22.8865C25.5936 22.4755 25.8741 21.5288 25.4631 20.7719L25.091 20.0866L13.6214 26.3141L14.2415 27.4562C14.5155 27.9608 15.1466 28.1478 15.6513 27.8738L24.8367 22.8865Z" fill="white"/>
<path d="M17.96 19.3204C18.7169 18.9094 18.9973 17.9627 18.5863 17.2058L18.2143 16.5205L10.39 20.7688C9.63306 21.1797 9.35262 22.1265 9.76359 22.8834L10.1356 23.5686L17.96 19.3204Z" fill="white"/>
<path d="M17.6949 7.03009C18.4518 6.61912 18.7323 5.67237 18.3213 4.91547L17.9492 4.23022L9.86267 8.62087C9.35807 8.89485 9.17111 9.52601 9.44508 10.0306L10.0652 11.1727L17.6949 7.03009Z" fill="white"/>
<path d="M17.7152 2.63375C18.4691 3.05016 18.7427 3.9989 18.3263 4.75283L17.9493 5.43538L11.4241 1.83142L12.0524 0.69383C12.33 0.191211 12.9625 0.008799 13.4651 0.286402L17.7152 2.63375Z" fill="white"/>
<path d="M18.2101 17.5619L18.5871 16.8793C19.0035 16.1254 18.7299 15.1766 17.976 14.7602L10.1042 10.4125L9.47586 11.5501C9.19826 12.0527 9.38067 12.6852 9.88329 12.9628L18.2101 17.5619Z" fill="white"/>
<path d="M2.38013 6.26789C2.38013 5.40661 3.07833 4.70841 3.93961 4.70841H4.71935V16.5345H3.93961C3.07833 16.5345 2.38013 15.8363 2.38013 14.975V6.26789Z" fill="white"/>
<path d="M18.5251 4.04465C18.5251 3.18337 17.8268 2.48517 16.9656 2.48517H16.1858V7.16361H16.9656C17.8268 7.16361 18.5251 6.46541 18.5251 5.60413V4.04465Z" fill="white"/>
<path d="M18.785 16.1956C18.785 15.3343 18.0868 14.6361 17.2255 14.6361H16.4457V19.5095H17.2255C18.0868 19.5095 18.785 18.8113 18.785 17.95V16.1956Z" fill="white"/>
<path d="M25.6583 12.8168C25.6583 11.9555 24.9601 11.2573 24.0988 11.2573H23.319V23.0509H24.0988C24.9601 23.0509 25.6583 22.3527 25.6583 21.4914V12.8168Z" fill="white"/>
<path d="M9.47864 22.1737C9.47864 21.3124 10.1768 20.6142 11.0381 20.6142H11.8179V25.715H11.0381C10.1768 25.715 9.47864 25.0168 9.47864 24.1555V22.1737Z" fill="white"/>
<path d="M9.29811 9.63279C9.29811 9.05861 9.76358 8.59314 10.3378 8.59314H11.6373V13.0766H10.3378C9.76358 13.0766 9.29811 12.6112 9.29811 12.037V9.63279Z" fill="white"/>
</svg>
