<svg width="20" height="20" viewBox="0 0 20 20" fill="none" xmlns="http://www.w3.org/2000/svg">
<mask id="mask0_480_2206" style="mask-type:alpha" maskUnits="userSpaceOnUse" x="0" y="0" width="20" height="20">
<rect width="20" height="20" fill="#D9D9D9"/>
</mask>
<g mask="url(#mask0_480_2206)">
<path d="M5.83333 14.1667V5.83341C5.83333 5.5973 5.91319 5.39939 6.07292 5.23966C6.23264 5.07994 6.43056 5.00008 6.66667 5.00008C6.90278 5.00008 7.10069 5.07994 7.26042 5.23966C7.42014 5.39939 7.5 5.5973 7.5 5.83341V14.1667C7.5 14.4029 7.42014 14.6008 7.26042 14.7605C7.10069 14.9202 6.90278 15.0001 6.66667 15.0001C6.43056 15.0001 6.23264 14.9202 6.07292 14.7605C5.91319 14.6008 5.83333 14.4029 5.83333 14.1667ZM9.16667 17.5001V2.50008C9.16667 2.26397 9.24653 2.06605 9.40625 1.90633C9.56597 1.74661 9.76389 1.66675 10 1.66675C10.2361 1.66675 10.434 1.74661 10.5938 1.90633C10.7535 2.06605 10.8333 2.26397 10.8333 2.50008V17.5001C10.8333 17.7362 10.7535 17.9341 10.5938 18.0938C10.434 18.2536 10.2361 18.3334 10 18.3334C9.76389 18.3334 9.56597 18.2536 9.40625 18.0938C9.24653 17.9341 9.16667 17.7362 9.16667 17.5001ZM2.5 10.8334V9.16675C2.5 8.93064 2.57986 8.73272 2.73958 8.573C2.89931 8.41328 3.09722 8.33341 3.33333 8.33341C3.56944 8.33341 3.76736 8.41328 3.92708 8.573C4.08681 8.73272 4.16667 8.93064 4.16667 9.16675V10.8334C4.16667 11.0695 4.08681 11.2674 3.92708 11.4272C3.76736 11.5869 3.56944 11.6667 3.33333 11.6667C3.09722 11.6667 2.89931 11.5869 2.73958 11.4272C2.57986 11.2674 2.5 11.0695 2.5 10.8334ZM12.5 14.1667V5.83341C12.5 5.5973 12.5799 5.39939 12.7396 5.23966C12.8993 5.07994 13.0972 5.00008 13.3333 5.00008C13.5694 5.00008 13.7674 5.07994 13.9271 5.23966C14.0868 5.39939 14.1667 5.5973 14.1667 5.83341V14.1667C14.1667 14.4029 14.0868 14.6008 13.9271 14.7605C13.7674 14.9202 13.5694 15.0001 13.3333 15.0001C13.0972 15.0001 12.8993 14.9202 12.7396 14.7605C12.5799 14.6008 12.5 14.4029 12.5 14.1667ZM15.8333 10.8334V9.16675C15.8333 8.93064 15.9132 8.73272 16.0729 8.573C16.2326 8.41328 16.4306 8.33341 16.6667 8.33341C16.9028 8.33341 17.1007 8.41328 17.2604 8.573C17.4201 8.73272 17.5 8.93064 17.5 9.16675V10.8334C17.5 11.0695 17.4201 11.2674 17.2604 11.4272C17.1007 11.5869 16.9028 11.6667 16.6667 11.6667C16.4306 11.6667 16.2326 11.5869 16.0729 11.4272C15.9132 11.2674 15.8333 11.0695 15.8333 10.8334Z" fill="white"/>
</g>
</svg>
