<svg width="24" height="24" viewBox="0 0 24 24" fill="none" xmlns="http://www.w3.org/2000/svg">
<path opacity="0.2" d="M21.75 12C21.75 13.1728 20.0794 14.0578 19.6238 15.1584C19.185 16.2197 19.7569 18.0319 18.8944 18.8944C18.0319 19.7569 16.2197 19.185 15.1584 19.6238C14.0625 20.0794 13.1719 21.75 12 21.75C10.8281 21.75 9.9375 20.0794 8.84156 19.6238C7.78031 19.185 5.96812 19.7569 5.10562 18.8944C4.24312 18.0319 4.815 16.2197 4.37625 15.1584C3.92062 14.0625 2.25 13.1719 2.25 12C2.25 10.8281 3.92062 9.9375 4.37625 8.84156C4.815 7.78125 4.24312 5.96812 5.10562 5.10562C5.96812 4.24312 7.78125 4.815 8.84156 4.37625C9.94219 3.92062 10.8281 2.25 12 2.25C13.1719 2.25 14.0625 3.92062 15.1584 4.37625C16.2197 4.815 18.0319 4.24312 18.8944 5.10562C19.7569 5.96812 19.185 7.78031 19.6238 8.84156C20.0794 9.94219 21.75 10.8281 21.75 12Z" fill="#A1ABF2"/>
<path d="M21.1744 9.63937C20.8209 9.27 20.4553 8.88938 20.3175 8.55469C20.19 8.24813 20.1825 7.74 20.175 7.24781C20.1609 6.33281 20.1459 5.29594 19.425 4.575C18.7041 3.85406 17.6672 3.83906 16.7522 3.825C16.26 3.8175 15.7519 3.81 15.4453 3.6825C15.1116 3.54469 14.73 3.17906 14.3606 2.82562C13.7137 2.20406 12.9788 1.5 12 1.5C11.0212 1.5 10.2872 2.20406 9.63937 2.82562C9.27 3.17906 8.88938 3.54469 8.55469 3.6825C8.25 3.81 7.74 3.8175 7.24781 3.825C6.33281 3.83906 5.29594 3.85406 4.575 4.575C3.85406 5.29594 3.84375 6.33281 3.825 7.24781C3.8175 7.74 3.81 8.24813 3.6825 8.55469C3.54469 8.88844 3.17906 9.27 2.82562 9.63937C2.20406 10.2863 1.5 11.0212 1.5 12C1.5 12.9788 2.20406 13.7128 2.82562 14.3606C3.17906 14.73 3.54469 15.1106 3.6825 15.4453C3.81 15.7519 3.8175 16.26 3.825 16.7522C3.83906 17.6672 3.85406 18.7041 4.575 19.425C5.29594 20.1459 6.33281 20.1609 7.24781 20.175C7.74 20.1825 8.24813 20.19 8.55469 20.3175C8.88844 20.4553 9.27 20.8209 9.63937 21.1744C10.2863 21.7959 11.0212 22.5 12 22.5C12.9788 22.5 13.7128 21.7959 14.3606 21.1744C14.73 20.8209 15.1106 20.4553 15.4453 20.3175C15.7519 20.19 16.26 20.1825 16.7522 20.175C17.6672 20.1609 18.7041 20.1459 19.425 19.425C20.1459 18.7041 20.1609 17.6672 20.175 16.7522C20.1825 16.26 20.19 15.7519 20.3175 15.4453C20.4553 15.1116 20.8209 14.73 21.1744 14.3606C21.7959 13.7137 22.5 12.9788 22.5 12C22.5 11.0212 21.7959 10.2872 21.1744 9.63937ZM20.0916 13.3228C19.6425 13.7916 19.1775 14.2763 18.9309 14.8716C18.6947 15.4434 18.6844 16.0969 18.675 16.7297C18.6656 17.3859 18.6553 18.0731 18.3638 18.3638C18.0722 18.6544 17.3897 18.6656 16.7297 18.675C16.0969 18.6844 15.4434 18.6947 14.8716 18.9309C14.2763 19.1775 13.7916 19.6425 13.3228 20.0916C12.8541 20.5406 12.375 21 12 21C11.625 21 11.1422 20.5387 10.6772 20.0916C10.2122 19.6444 9.72375 19.1775 9.12844 18.9309C8.55656 18.6947 7.90313 18.6844 7.27031 18.675C6.61406 18.6656 5.92688 18.6553 5.63625 18.3638C5.34562 18.0722 5.33437 17.3897 5.325 16.7297C5.31562 16.0969 5.30531 15.4434 5.06906 14.8716C4.8225 14.2763 4.3575 13.7916 3.90844 13.3228C3.45937 12.8541 3 12.375 3 12C3 11.625 3.46125 11.1422 3.90844 10.6772C4.35562 10.2122 4.8225 9.72375 5.06906 9.12844C5.30531 8.55656 5.31562 7.90313 5.325 7.27031C5.33437 6.61406 5.34469 5.92688 5.63625 5.63625C5.92781 5.34562 6.61031 5.33437 7.27031 5.325C7.90313 5.31562 8.55656 5.30531 9.12844 5.06906C9.72375 4.8225 10.2084 4.3575 10.6772 3.90844C11.1459 3.45937 11.625 3 12 3C12.375 3 12.8578 3.46125 13.3228 3.90844C13.7878 4.35562 14.2763 4.8225 14.8716 5.06906C15.4434 5.30531 16.0969 5.31562 16.7297 5.325C17.3859 5.33437 18.0731 5.34469 18.3638 5.63625C18.6544 5.92781 18.6656 6.61031 18.675 7.27031C18.6844 7.90313 18.6947 8.55656 18.9309 9.12844C19.1775 9.72375 19.6425 10.2084 20.0916 10.6772C20.5406 11.1459 21 11.625 21 12C21 12.375 20.5387 12.8578 20.0916 13.3228ZM16.2806 9.21937C16.3504 9.28903 16.4057 9.37175 16.4434 9.46279C16.4812 9.55384 16.5006 9.65144 16.5006 9.75C16.5006 9.84856 16.4812 9.94616 16.4434 10.0372C16.4057 10.1283 16.3504 10.211 16.2806 10.2806L11.0306 15.5306C10.961 15.6004 10.8783 15.6557 10.7872 15.6934C10.6962 15.7312 10.5986 15.7506 10.5 15.7506C10.4014 15.7506 10.3038 15.7312 10.2128 15.6934C10.1217 15.6557 10.039 15.6004 9.96937 15.5306L7.71937 13.2806C7.57864 13.1399 7.49958 12.949 7.49958 12.75C7.49958 12.551 7.57864 12.3601 7.71937 12.2194C7.86011 12.0786 8.05098 11.9996 8.25 11.9996C8.44902 11.9996 8.63989 12.0786 8.78063 12.2194L10.5 13.9397L15.2194 9.21937C15.289 9.14964 15.3717 9.09432 15.4628 9.05658C15.5538 9.01884 15.6514 8.99941 15.75 8.99941C15.8486 8.99941 15.9462 9.01884 16.0372 9.05658C16.1283 9.09432 16.211 9.14964 16.2806 9.21937Z" fill="#A1ABF2"/>
</svg>
