<svg width="24" height="24" viewBox="0 0 24 24" fill="none" xmlns="http://www.w3.org/2000/svg">
<mask id="mask0_356_3075" style="mask-type:alpha" maskUnits="userSpaceOnUse" x="0" y="0" width="24" height="24">
<rect x="24" y="24" width="24" height="24" transform="rotate(-180 24 24)" fill="#D9D9D9"/>
</mask>
<g mask="url(#mask0_356_3075)">
<path d="M11.9908 8.30814L8.3466 11.9523L9.3908 12.9965L11.2408 11.1465L11.2408 15.7023L12.7504 15.7023L12.7504 11.1465L14.6004 12.9965L15.6446 11.9523L11.9908 8.30814ZM11.9987 2.50044C13.3127 2.50044 14.5477 2.74978 15.7038 3.24845C16.86 3.74711 17.8657 4.42386 18.7209 5.27869C19.5761 6.13354 20.2532 7.13879 20.7521 8.29442C21.251 9.45004 21.5004 10.6848 21.5004 11.9987C21.5004 13.3127 21.2511 14.5477 20.7524 15.7038C20.2537 16.86 19.577 17.8657 18.7221 18.7209C17.8673 19.5761 16.8621 20.2532 15.7064 20.7521C14.5508 21.251 13.316 21.5004 12.0021 21.5004C10.6882 21.5004 9.45313 21.2511 8.29699 20.7524C7.14084 20.2537 6.13516 19.577 5.27995 18.7221C4.42471 17.8673 3.74765 16.8621 3.24877 15.7064C2.74989 14.5508 2.50045 13.316 2.50045 12.0021C2.50045 10.6882 2.74978 9.45313 3.24845 8.29699C3.74711 7.14084 4.42386 6.13516 5.2787 5.27994C6.13355 4.42471 7.13879 3.74765 8.29442 3.24877C9.45004 2.74988 10.6848 2.50044 11.9987 2.50044Z" fill="#40BB33"/>
</g>
</svg>
