<svg width="24" height="24" viewBox="0 0 24 24" fill="none" xmlns="http://www.w3.org/2000/svg">
<mask id="mask0_356_3085" style="mask-type:alpha" maskUnits="userSpaceOnUse" x="0" y="0" width="24" height="24">
<rect width="24" height="24" transform="matrix(-1 8.74228e-08 8.74228e-08 1 24 0)" fill="#E74C3C"/>
</mask>
<g mask="url(#mask0_356_3085)">
<path d="M11.9908 15.6919L8.34657 12.0477L9.39077 11.0035L11.2408 12.8535L11.2408 8.29768L12.7504 8.29768L12.7504 12.8535L14.6004 11.0035L15.6446 12.0477L11.9908 15.6919ZM11.9987 21.4996C13.3127 21.4996 14.5477 21.2502 15.7038 20.7516C16.86 20.2529 17.8657 19.5761 18.7209 18.7213C19.5761 17.8665 20.2532 16.8612 20.752 15.7056C21.2509 14.55 21.5004 13.3152 21.5004 12.0013C21.5004 10.6873 21.251 9.45229 20.7524 8.29615C20.2537 7.14 19.5769 6.13432 18.7221 5.27911C17.8673 4.42387 16.862 3.74681 15.7064 3.24793C14.5508 2.74905 13.316 2.4996 12.0021 2.4996C10.6881 2.4996 9.4531 2.74894 8.29696 3.24761C7.14081 3.74627 6.13513 4.42302 5.27992 5.27786C4.42468 6.13271 3.74762 7.13795 3.24874 8.29358C2.74986 9.4492 2.50041 10.684 2.50041 11.9979C2.50041 13.3118 2.74975 14.5469 3.24842 15.703C3.74708 16.8592 4.42383 17.8648 5.27867 18.7201C6.13351 19.5753 7.13876 20.2523 8.29439 20.7512C9.45001 21.2501 10.6848 21.4996 11.9987 21.4996Z" fill="#E35746"/>
</g>
</svg>
