<svg width="46" height="46" viewBox="0 0 46 46" fill="none" xmlns="http://www.w3.org/2000/svg">
<g filter="url(#filter0_d_356_3653)">
<rect x="7" y="0.000244141" width="32" height="32" rx="16" fill="#566FE9"/>
<path d="M29.3538 14.854L26.3538 17.854C26.2599 17.9478 26.1327 18.0005 26 18.0005C25.8673 18.0005 25.7401 17.9478 25.6462 17.854C25.5524 17.7601 25.4997 17.6329 25.4997 17.5002C25.4997 17.3675 25.5524 17.2403 25.6462 17.1465L27.7931 15.0002H23C21.5418 15.0019 20.1438 15.5819 19.1127 16.613C18.0816 17.644 17.5017 19.042 17.5 20.5002C17.5 20.6328 17.4473 20.76 17.3536 20.8538C17.2598 20.9475 17.1326 21.0002 17 21.0002C16.8674 21.0002 16.7402 20.9475 16.6464 20.8538C16.5527 20.76 16.5 20.6328 16.5 20.5002C16.5018 18.7769 17.1872 17.1246 18.4058 15.906C19.6244 14.6874 21.2767 14.002 23 14.0002H27.7931L25.6462 11.854C25.5998 11.8075 25.5629 11.7524 25.5378 11.6917C25.5127 11.631 25.4997 11.5659 25.4997 11.5002C25.4997 11.4345 25.5127 11.3695 25.5378 11.3088C25.5629 11.2481 25.5998 11.1929 25.6462 11.1465C25.7401 11.0526 25.8673 10.9999 26 10.9999C26.0657 10.9999 26.1308 11.0129 26.1914 11.038C26.2521 11.0632 26.3073 11.1 26.3538 11.1465L29.3538 14.1465C29.4002 14.1929 29.4371 14.248 29.4623 14.3087C29.4874 14.3694 29.5004 14.4345 29.5004 14.5002C29.5004 14.5659 29.4874 14.631 29.4623 14.6917C29.4371 14.7524 29.4002 14.8075 29.3538 14.854Z" fill="white"/>
</g>
<defs>
<filter id="filter0_d_356_3653" x="0" y="0.000244141" width="46" height="46" filterUnits="userSpaceOnUse" color-interpolation-filters="sRGB">
<feFlood flood-opacity="0" result="BackgroundImageFix"/>
<feColorMatrix in="SourceAlpha" type="matrix" values="0 0 0 0 0 0 0 0 0 0 0 0 0 0 0 0 0 0 127 0" result="hardAlpha"/>
<feOffset dy="7"/>
<feGaussianBlur stdDeviation="3.5"/>
<feColorMatrix type="matrix" values="0 0 0 0 0.337255 0 0 0 0 0.435294 0 0 0 0 0.913725 0 0 0 0.1 0"/>
<feBlend mode="normal" in2="BackgroundImageFix" result="effect1_dropShadow_356_3653"/>
<feBlend mode="normal" in="SourceGraphic" in2="effect1_dropShadow_356_3653" result="shape"/>
</filter>
</defs>
</svg>
