<svg width="17" height="16" viewBox="0 0 17 16" fill="none" xmlns="http://www.w3.org/2000/svg">
<path d="M8 13.5C8 13.6326 7.94732 13.7598 7.85355 13.8536C7.75979 13.9473 7.63261 14 7.5 14H3.5C3.36739 14 3.24021 13.9473 3.14645 13.8536C3.05268 13.7598 3 13.6326 3 13.5V2.5C3 2.36739 3.05268 2.24021 3.14645 2.14645C3.24021 2.05268 3.36739 2 3.5 2H7.5C7.63261 2 7.75979 2.05268 7.85355 2.14645C7.94732 2.24021 8 2.36739 8 2.5C8 2.63261 7.94732 2.75979 7.85355 2.85355C7.75979 2.94732 7.63261 3 7.5 3H4V13H7.5C7.63261 13 7.75979 13.0527 7.85355 13.1464C7.94732 13.2402 8 13.3674 8 13.5ZM14.8538 7.64625L12.3538 5.14625C12.2599 5.05243 12.1327 4.99972 12 4.99972C11.8673 4.99972 11.7401 5.05243 11.6462 5.14625C11.5524 5.24007 11.4997 5.36732 11.4997 5.5C11.4997 5.63268 11.5524 5.75993 11.6462 5.85375L13.2931 7.5H7.5C7.36739 7.5 7.24021 7.55268 7.14645 7.64645C7.05268 7.74021 7 7.86739 7 8C7 8.13261 7.05268 8.25979 7.14645 8.35355C7.24021 8.44732 7.36739 8.5 7.5 8.5H13.2931L11.6462 10.1462C11.5524 10.2401 11.4997 10.3673 11.4997 10.5C11.4997 10.6327 11.5524 10.7599 11.6462 10.8538C11.7401 10.9476 11.8673 11.0003 12 11.0003C12.1327 11.0003 12.2599 10.9476 12.3538 10.8538L14.8538 8.35375C14.9002 8.30731 14.9371 8.25217 14.9623 8.19147C14.9874 8.13077 15.0004 8.06571 15.0004 8C15.0004 7.93429 14.9874 7.86923 14.9623 7.80853C14.9371 7.74783 14.9002 7.69269 14.8538 7.64625Z" fill="white"/>
</svg>
