<svg width="16" height="16" viewBox="0 0 16 16" fill="none" xmlns="http://www.w3.org/2000/svg">
<path d="M1.50039 7.99979C1.50172 6.80672 1.97625 5.6629 2.81987 4.81927C3.6635 3.97564 4.80733 3.50111 6.00039 3.49979H12.7935L12.1466 2.85354C12.0528 2.75972 12.0001 2.63247 12.0001 2.49979C12.0001 2.36711 12.0528 2.23986 12.1466 2.14604C12.2405 2.05222 12.3677 1.99951 12.5004 1.99951C12.6331 1.99951 12.7603 2.05222 12.8541 2.14604L14.3541 3.64604C14.4006 3.69248 14.4375 3.74762 14.4627 3.80832C14.4878 3.86902 14.5008 3.93408 14.5008 3.99979C14.5008 4.0655 14.4878 4.13056 14.4627 4.19126C14.4375 4.25196 14.4006 4.3071 14.3541 4.35354L12.8541 5.85354C12.7603 5.94736 12.6331 6.00007 12.5004 6.00007C12.3677 6.00007 12.2405 5.94736 12.1466 5.85354C12.0528 5.75972 12.0001 5.63247 12.0001 5.49979C12.0001 5.36711 12.0528 5.23986 12.1466 5.14604L12.7935 4.49979H6.00039C5.07244 4.50078 4.18278 4.86985 3.52662 5.52601C2.87045 6.18217 2.50139 7.07184 2.50039 7.99979C2.50039 8.1324 2.44771 8.25958 2.35395 8.35334C2.26018 8.44711 2.133 8.49979 2.00039 8.49979C1.86779 8.49979 1.74061 8.44711 1.64684 8.35334C1.55307 8.25958 1.50039 8.1324 1.50039 7.99979ZM14.0004 7.49979C13.8678 7.49979 13.7406 7.55247 13.6468 7.64624C13.5531 7.74 13.5004 7.86718 13.5004 7.99979C13.4994 8.92774 13.1303 9.81741 12.4742 10.4736C11.818 11.1297 10.9283 11.4988 10.0004 11.4998H3.20727L3.85414 10.8535C3.9006 10.8071 3.93745 10.7519 3.96259 10.6912C3.98773 10.6305 4.00067 10.5655 4.00067 10.4998C4.00067 10.4341 3.98773 10.369 3.96259 10.3083C3.93745 10.2476 3.9006 10.1925 3.85414 10.146C3.80769 10.0996 3.75254 10.0627 3.69184 10.0376C3.63115 10.0125 3.56609 9.99951 3.50039 9.99951C3.4347 9.99951 3.36964 10.0125 3.30895 10.0376C3.24825 10.0627 3.1931 10.0996 3.14664 10.146L1.64664 11.646C1.60016 11.6925 1.56328 11.7476 1.53811 11.8083C1.51295 11.869 1.5 11.9341 1.5 11.9998C1.5 12.0655 1.51295 12.1306 1.53811 12.1913C1.56328 12.252 1.60016 12.3071 1.64664 12.3535L3.14664 13.8535C3.1931 13.9 3.24825 13.9368 3.30895 13.962C3.36964 13.9871 3.4347 14.0001 3.50039 14.0001C3.56609 14.0001 3.63115 13.9871 3.69184 13.962C3.75254 13.9368 3.80769 13.9 3.85414 13.8535C3.9006 13.8071 3.93745 13.7519 3.96259 13.6912C3.98773 13.6305 4.00067 13.5655 4.00067 13.4998C4.00067 13.4341 3.98773 13.369 3.96259 13.3083C3.93745 13.2476 3.9006 13.1925 3.85414 13.146L3.20727 12.4998H10.0004C11.1935 12.4985 12.3373 12.0239 13.1809 11.1803C14.0245 10.3367 14.4991 9.19286 14.5004 7.99979C14.5004 7.86718 14.4477 7.74 14.3539 7.64624C14.2602 7.55247 14.133 7.49979 14.0004 7.49979Z" fill="white"/>
</svg>
