<svg width="17" height="16" viewBox="0 0 17 16" fill="none" xmlns="http://www.w3.org/2000/svg">
<path d="M14.8538 6.85354L11.8538 9.85354C11.7599 9.94736 11.6327 10.0001 11.5 10.0001C11.3673 10.0001 11.2401 9.94736 11.1462 9.85354C11.0524 9.75972 10.9997 9.63247 10.9997 9.49979C10.9997 9.36711 11.0524 9.23986 11.1462 9.14604L13.2931 6.99979H8.5C7.04182 7.00144 5.64383 7.58144 4.61274 8.61253C3.58165 9.64362 3.00165 11.0416 3 12.4998C3 12.6324 2.94732 12.7596 2.85355 12.8533C2.75979 12.9471 2.63261 12.9998 2.5 12.9998C2.36739 12.9998 2.24021 12.9471 2.14645 12.8533C2.05268 12.7596 2 12.6324 2 12.4998C2.00182 10.7764 2.68722 9.1242 3.90582 7.90561C5.12441 6.68701 6.77665 6.00161 8.5 5.99979H13.2931L11.1462 3.85354C11.0998 3.80708 11.0629 3.75193 11.0378 3.69124C11.0127 3.63054 10.9997 3.56549 10.9997 3.49979C10.9997 3.43409 11.0127 3.36904 11.0378 3.30834C11.0629 3.24764 11.0998 3.19249 11.1462 3.14604C11.2401 3.05222 11.3673 2.99951 11.5 2.99951C11.5657 2.99951 11.6308 3.01245 11.6914 3.03759C11.7521 3.06273 11.8073 3.09958 11.8538 3.14604L14.8538 6.14604C14.9002 6.19248 14.9371 6.24762 14.9623 6.30832C14.9874 6.36902 15.0004 6.43408 15.0004 6.49979C15.0004 6.5655 14.9874 6.63056 14.9623 6.69126C14.9371 6.75196 14.9002 6.8071 14.8538 6.85354Z" fill="white"/>
</svg>
