<svg width="17" height="16" viewBox="0 0 17 16" fill="none" xmlns="http://www.w3.org/2000/svg">
<path d="M15.025 7.15545L6.02 1.6467C5.86818 1.55373 5.69429 1.50298 5.5163 1.49968C5.33831 1.49639 5.16266 1.54067 5.0075 1.62795C4.85382 1.71388 4.7258 1.83919 4.6366 1.99099C4.54741 2.1428 4.50026 2.31563 4.5 2.4917V13.5079C4.50116 13.7721 4.60715 14.0249 4.79466 14.2109C4.98218 14.3969 5.23589 14.5008 5.5 14.4998C5.68435 14.4997 5.86511 14.4489 6.0225 14.3529L15.025 8.8442C15.1697 8.756 15.2893 8.63206 15.3723 8.4843C15.4553 8.33654 15.4989 8.16992 15.4989 8.00045C15.4989 7.83098 15.4553 7.66436 15.3723 7.5166C15.2893 7.36883 15.1697 7.2449 15.025 7.1567V7.15545ZM5.5 13.4961V2.49982L14.4894 7.99982L5.5 13.4961Z" fill="white"/>
</svg>
