<svg width="24" height="24" viewBox="0 0 24 24" fill="none" xmlns="http://www.w3.org/2000/svg">
<path d="M15 3.75C13.4678 3.75118 11.9662 4.17857 10.663 4.98437C9.35984 5.79017 8.30654 6.94262 7.6209 8.31281C6.80524 8.19385 5.97381 8.24424 5.17848 8.46082C4.38316 8.67741 3.64098 9.05555 2.99826 9.57166C2.35554 10.0878 1.82606 10.7308 1.44284 11.4606C1.05963 12.1904 0.830892 12.9913 0.770911 13.8134C0.71093 14.6355 0.820988 15.4612 1.09422 16.2388C1.36745 17.0165 1.798 17.7296 2.359 18.3335C2.92 18.9375 3.59943 19.4193 4.3549 19.749C5.11037 20.0788 5.92567 20.2493 6.74997 20.25H15C17.188 20.25 19.2864 19.3808 20.8336 17.8336C22.3808 16.2865 23.25 14.188 23.25 12C23.25 9.81196 22.3808 7.71354 20.8336 6.16637C19.2864 4.61919 17.188 3.75 15 3.75ZM15 18.75H6.74997C5.55649 18.75 4.4119 18.2759 3.56799 17.432C2.72407 16.5881 2.24997 15.4435 2.24997 14.25C2.24997 13.0565 2.72407 11.9119 3.56799 11.068C4.4119 10.2241 5.55649 9.75 6.74997 9.75C6.85309 9.75 6.95622 9.75 7.0584 9.76031C6.8533 10.4892 6.74951 11.2428 6.74997 12C6.74997 12.1989 6.82898 12.3897 6.96964 12.5303C7.11029 12.671 7.30105 12.75 7.49997 12.75C7.69888 12.75 7.88964 12.671 8.0303 12.5303C8.17095 12.3897 8.24997 12.1989 8.24997 12C8.24997 10.665 8.64585 9.35993 9.38755 8.2499C10.1292 7.13987 11.1835 6.2747 12.4169 5.76381C13.6503 5.25292 15.0075 5.11925 16.3168 5.3797C17.6262 5.64015 18.8289 6.28302 19.7729 7.22703C20.7169 8.17103 21.3598 9.37377 21.6203 10.6831C21.8807 11.9925 21.747 13.3497 21.2362 14.5831C20.7253 15.8165 19.8601 16.8707 18.7501 17.6124C17.64 18.3541 16.335 18.75 15 18.75ZM18.5306 9.96937C18.6003 10.039 18.6556 10.1217 18.6934 10.2128C18.7311 10.3038 18.7506 10.4014 18.7506 10.5C18.7506 10.5986 18.7311 10.6962 18.6934 10.7872C18.6556 10.8783 18.6003 10.961 18.5306 11.0306L14.0306 15.5306C13.9609 15.6004 13.8782 15.6557 13.7872 15.6934C13.6961 15.7312 13.5985 15.7506 13.5 15.7506C13.4014 15.7506 13.3038 15.7312 13.2128 15.6934C13.1217 15.6557 13.039 15.6004 12.9693 15.5306L10.7193 13.2806C10.5786 13.1399 10.4995 12.949 10.4995 12.75C10.4995 12.551 10.5786 12.3601 10.7193 12.2194C10.8601 12.0786 11.0509 11.9996 11.25 11.9996C11.449 11.9996 11.6399 12.0786 11.7806 12.2194L13.5 13.9397L17.4693 9.96937C17.539 9.89964 17.6217 9.84432 17.7128 9.80658C17.8038 9.76884 17.9014 9.74941 18 9.74941C18.0985 9.74941 18.1961 9.76884 18.2872 9.80658C18.3782 9.84432 18.4609 9.89964 18.5306 9.96937Z" fill="#A1ABF2"/>
</svg>
